<?xml version="1.0" encoding="UTF-8"?> <svg xmlns="http://www.w3.org/2000/svg" xmlns:xlink="http://www.w3.org/1999/xlink" width="260px" height="74px" viewBox="0 0 262 74" version="1.1"><g id="surface1"><path style=" stroke:none;fill-rule:nonzero;fill:rgb(100%,100%,100%);fill-opacity:1;" d="M 59.6875 47.921875 C 57.640625 45.867188 54.449219 45.683594 52.191406 47.34375 L 48.851562 44 C 49.632812 42.960938 50.105469 41.691406 50.105469 40.292969 C 50.105469 36.878906 47.339844 34.097656 43.921875 34.097656 C 40.5 34.097656 37.734375 36.867188 37.734375 40.292969 C 37.734375 43.722656 40.511719 46.492188 43.921875 46.492188 C 45.3125 46.492188 46.582031 46.007812 47.617188 45.234375 L 50.957031 48.578125 C 49.496094 50.574219 49.472656 53.277344 50.890625 55.308594 L 47.558594 58.480469 C 46.570312 57.753906 45.3125 57.304688 43.921875 57.304688 C 40.742188 57.304688 38.160156 59.585938 38.160156 62.402344 C 38.160156 65.21875 40.742188 67.515625 43.921875 67.515625 C 47.097656 67.515625 49.679688 65.230469 49.679688 62.402344 C 49.679688 61.410156 49.34375 60.488281 48.792969 59.703125 L 52.109375 56.554688 C 54.378906 58.320312 57.640625 58.203125 59.722656 56.113281 C 61.96875 53.863281 61.96875 50.195312 59.6875 47.921875 Z M 59.6875 47.921875 "></path><path style=" stroke:none;fill-rule:nonzero;fill:rgb(100%,100%,100%);fill-opacity:1;" d="M 37.054688 25.410156 L 40.589844 22.222656 C 41.535156 22.8125 42.675781 23.171875 43.921875 23.171875 C 45.164062 23.171875 46.304688 22.8125 47.25 22.222656 L 50.796875 25.410156 C 49.378906 27.613281 49.65625 30.601562 51.613281 32.5625 C 53.5625 34.511719 56.53125 34.800781 58.734375 33.40625 L 61.855469 36.925781 C 61.253906 37.871094 60.886719 39.023438 60.886719 40.28125 C 60.886719 43.46875 63.167969 46.050781 65.988281 46.050781 C 68.8125 46.050781 71.082031 43.46875 71.082031 40.28125 C 71.082031 37.097656 68.800781 34.511719 65.988281 34.511719 C 64.871094 34.511719 63.847656 34.929688 63.007812 35.621094 L 60.011719 32.238281 C 61.84375 30.011719 61.714844 26.703125 59.597656 24.578125 C 57.488281 22.464844 54.195312 22.328125 51.972656 24.140625 L 48.5625 21.070312 C 49.253906 20.226562 49.679688 19.191406 49.679688 18.070312 C 49.679688 15.253906 47.097656 12.957031 43.921875 12.957031 C 40.742188 12.957031 38.160156 15.242188 38.160156 18.070312 C 38.160156 19.199219 38.585938 20.226562 39.277344 21.070312 L 35.867188 24.128906 C 33.84375 22.445312 30.972656 22.328125 28.867188 23.804688 L 26.664062 21.507812 C 27.921875 19.859375 28.152344 17.769531 27.34375 16.15625 L 30.257812 13.683594 C 32.023438 15.058594 34.730469 14.910156 36.699219 13.199219 C 38.898438 11.285156 39.300781 8.15625 37.621094 6.207031 C 36.765625 5.214844 35.535156 4.730469 34.246094 4.730469 C 32.953125 4.730469 31.664062 5.203125 30.582031 6.148438 C 28.660156 7.824219 28.105469 10.429688 29.128906 12.359375 L 26.25 14.792969 C 24.375 13.269531 21.460938 13.558594 19.523438 15.554688 C 17.496094 17.644531 17.347656 20.792969 19.203125 22.59375 C 20.824219 24.175781 23.441406 24.175781 25.433594 22.730469 L 27.621094 25.015625 C 25.894531 27.289062 26.054688 30.542969 28.152344 32.644531 C 30.433594 34.929688 34.09375 34.953125 36.351562 32.703125 C 38.324219 30.730469 38.554688 27.671875 37.054688 25.398438 Z M 37.054688 25.410156 "></path><path style=" stroke:none;fill-rule:nonzero;fill:rgb(100%,100%,100%);fill-opacity:1;" d="M 21.746094 34.511719 C 18.9375 34.511719 16.644531 37.097656 16.644531 40.28125 C 16.644531 41.585938 17.035156 42.773438 17.679688 43.734375 L 15.34375 46.492188 C 14.503906 45.855469 13.488281 45.488281 12.40625 45.566406 C 11.601562 45.625 10.863281 45.9375 10.230469 46.410156 L 7.335938 42.960938 C 7.71875 42.175781 7.9375 41.265625 7.9375 40.28125 C 7.9375 39.300781 7.707031 38.34375 7.316406 37.546875 L 10.078125 34.15625 C 10.703125 34.59375 11.414062 34.894531 12.210938 34.953125 C 14.777344 35.148438 17.035156 32.945312 17.253906 30.035156 C 17.472656 27.128906 15.574219 24.625 13.003906 24.429688 C 12.222656 24.371094 11.484375 24.554688 10.804688 24.890625 L 9.179688 22.109375 C 9.320312 21.925781 9.46875 21.75 9.59375 21.554688 C 10.929688 19.476562 10.898438 17.214844 9.503906 16.5 C 9.214844 16.351562 8.894531 16.28125 8.546875 16.28125 C 7.234375 16.28125 5.632812 17.308594 4.574219 18.957031 C 3.238281 21.035156 3.273438 23.296875 4.652344 24.011719 C 5.539062 24.472656 6.773438 24.1875 7.890625 23.367188 L 9.410156 25.960938 C 8.605469 26.839844 8.0625 28.015625 7.960938 29.367188 C 7.855469 30.695312 8.226562 31.941406 8.871094 32.921875 L 6.253906 36.128906 C 5.609375 35.539062 4.828125 35.195312 3.972656 35.195312 C 1.773438 35.195312 0 37.480469 0 40.304688 C 0 43.132812 1.785156 45.417969 3.972656 45.417969 C 4.851562 45.417969 5.644531 45.046875 6.300781 44.4375 L 9.042969 47.703125 C 8.410156 48.671875 8.0625 49.894531 8.167969 51.199219 C 8.386719 54.105469 10.644531 56.300781 13.210938 56.101562 C 15.78125 55.90625 17.679688 53.402344 17.472656 50.496094 C 17.394531 49.480469 17.058594 48.554688 16.550781 47.785156 L 18.867188 45.046875 C 19.6875 45.683594 20.6875 46.0625 21.757812 46.0625 C 24.570312 46.0625 26.863281 43.480469 26.863281 40.292969 C 26.863281 37.109375 24.582031 34.523438 21.757812 34.523438 Z M 21.746094 34.511719 "></path><path style=" stroke:none;fill-rule:nonzero;fill:rgb(100%,100%,100%);fill-opacity:1;" d="M 84.003906 35.183594 C 83.128906 35.183594 82.335938 35.585938 81.691406 36.234375 L 78.820312 32.863281 C 79.433594 31.894531 79.777344 30.695312 79.683594 29.402344 C 79.59375 28.144531 79.097656 27.046875 78.382812 26.183594 L 79.742188 24.082031 C 80.917969 25.039062 82.253906 25.375 83.1875 24.785156 C 84.535156 23.933594 84.535156 21.507812 83.1875 19.386719 C 82.160156 17.757812 80.652344 16.765625 79.398438 16.765625 C 79.003906 16.765625 78.636719 16.859375 78.324219 17.066406 C 76.976562 17.921875 76.976562 20.332031 78.316406 22.464844 C 78.382812 22.570312 78.453125 22.664062 78.523438 22.753906 L 77.035156 25.050781 C 76.308594 24.636719 75.492188 24.417969 74.628906 24.484375 C 72.058594 24.683594 70.160156 27.1875 70.378906 30.09375 C 70.597656 33 72.855469 35.195312 75.421875 35.007812 C 76.253906 34.941406 76.988281 34.628906 77.636719 34.144531 L 80.6875 37.746094 C 80.363281 38.496094 80.15625 39.359375 80.15625 40.292969 C 80.15625 43.121094 81.875 45.40625 83.992188 45.40625 C 86.113281 45.40625 87.828125 43.121094 87.828125 40.292969 C 87.828125 37.46875 86.113281 35.183594 83.992188 35.183594 Z M 84.003906 35.183594 "></path><path style=" stroke:none;fill-rule:nonzero;fill:rgb(100%,100%,100%);fill-opacity:1;" d="M 17.53125 12.589844 C 18.832031 11.402344 19.5 9.890625 19.433594 8.675781 L 22.714844 6.3125 C 23.625 6.648438 24.914062 6.566406 26.226562 5.964844 C 28.417969 4.960938 29.832031 2.941406 29.40625 1.453125 C 29.140625 0.519531 28.210938 0.0117188 27.023438 0.0117188 C 26.308594 0.0117188 25.503906 0.195312 24.683594 0.566406 C 22.519531 1.558594 21.089844 3.566406 21.492188 5.042969 L 18.660156 7.097656 C 17.484375 6.183594 15.332031 6.625 13.617188 8.203125 C 11.761719 9.902344 11.140625 12.265625 12.222656 13.476562 C 13.304688 14.6875 15.6875 14.296875 17.542969 12.589844 Z M 17.53125 12.589844 "></path><path style=" stroke:none;fill-rule:nonzero;fill:rgb(100%,100%,100%);fill-opacity:1;" d="M 82.402344 56.414062 C 81.5625 56.023438 80.445312 56.300781 79.410156 57.027344 L 78.257812 54.808594 C 79.15625 53.921875 79.765625 52.652344 79.882812 51.222656 C 80.101562 48.3125 78.1875 45.796875 75.628906 45.613281 C 75.527344 45.613281 75.421875 45.601562 75.320312 45.601562 C 72.878906 45.601562 70.792969 47.738281 70.585938 50.53125 C 70.492188 51.71875 70.78125 52.835938 71.300781 53.761719 L 67.902344 57.335938 C 66.035156 56.195312 63.398438 56.597656 61.625 58.445312 C 59.597656 60.535156 59.449219 63.683594 61.300781 65.484375 C 62.824219 66.960938 65.230469 67.042969 67.152344 65.851562 L 69.664062 69.027344 C 68.234375 70.652344 67.71875 72.546875 68.523438 73.480469 C 68.835938 73.839844 69.285156 74 69.824219 74.011719 L 69.871094 74.011719 C 70.917969 74.011719 72.277344 73.375 73.476562 72.246094 C 75.296875 70.515625 76.058594 68.277344 75.160156 67.226562 C 74.375 66.328125 72.613281 66.613281 70.964844 67.839844 L 68.5 64.734375 C 70.136719 62.875 70.390625 60.316406 69.167969 58.539062 L 72.417969 55.121094 C 73.097656 55.699219 73.925781 56.078125 74.847656 56.136719 C 75.539062 56.183594 76.207031 56.058594 76.816406 55.792969 L 78.105469 58.285156 C 77.910156 58.527344 77.738281 58.78125 77.566406 59.058594 C 76.300781 61.167969 76.402344 63.40625 77.796875 64.066406 C 79.203125 64.722656 81.355469 63.546875 82.632812 61.433594 C 83.902344 59.324219 83.796875 57.082031 82.402344 56.425781 Z M 82.402344 56.414062 "></path><path style=" stroke:none;fill-rule:nonzero;fill:rgb(100%,100%,100%);fill-opacity:1;" d="M 100.210938 12.21875 L 102.539062 12.21875 L 106.257812 22.292969 L 110.046875 12.21875 L 112.304688 12.21875 L 112.304688 24.554688 L 110.53125 24.554688 L 110.53125 15.242188 L 106.960938 24.554688 L 105.464844 24.554688 L 101.949219 15.253906 L 101.949219 24.554688 L 100.210938 24.554688 Z M 100.210938 12.21875 "></path><path style=" stroke:none;fill-rule:nonzero;fill:rgb(100%,100%,100%);fill-opacity:1;" d="M 114.460938 20.101562 C 114.460938 19.121094 114.644531 18.277344 115 17.5625 C 115.359375 16.847656 115.875 16.292969 116.53125 15.902344 C 117.1875 15.507812 117.972656 15.3125 118.871094 15.3125 C 120.242188 15.3125 121.3125 15.738281 122.085938 16.582031 C 122.855469 17.425781 123.238281 18.578125 123.238281 20.03125 C 123.238281 21.484375 122.84375 22.6875 122.050781 23.550781 C 121.265625 24.40625 120.183594 24.84375 118.8125 24.84375 C 117.441406 24.84375 116.359375 24.429688 115.601562 23.585938 C 114.839844 22.742188 114.449219 21.589844 114.449219 20.113281 Z M 116.335938 20.066406 C 116.335938 21.046875 116.53125 21.832031 116.925781 22.445312 C 117.316406 23.042969 117.949219 23.355469 118.835938 23.355469 C 119.722656 23.355469 120.367188 23.054688 120.761719 22.445312 C 121.152344 21.832031 121.359375 21.035156 121.359375 20.054688 C 121.359375 19.074219 121.164062 18.324219 120.761719 17.710938 C 120.367188 17.113281 119.722656 16.800781 118.835938 16.800781 C 117.949219 16.800781 117.328125 17.101562 116.9375 17.710938 C 116.542969 18.3125 116.335938 19.109375 116.335938 20.066406 Z M 116.335938 20.066406 "></path><path style=" stroke:none;fill-rule:nonzero;fill:rgb(100%,100%,100%);fill-opacity:1;" d="M 125.195312 12.21875 L 126.992188 12.21875 L 126.992188 16.847656 C 127.441406 16.292969 127.914062 15.902344 128.417969 15.660156 C 128.925781 15.425781 129.457031 15.300781 130.007812 15.300781 C 131.011719 15.300781 131.761719 15.578125 132.253906 16.144531 C 132.75 16.695312 132.992188 17.515625 132.992188 18.566406 L 132.992188 24.542969 L 131.195312 24.542969 L 131.195312 18.914062 C 131.195312 18.164062 131.058594 17.632812 130.78125 17.308594 C 130.503906 16.996094 130.089844 16.835938 129.527344 16.835938 C 129.214844 16.835938 128.902344 16.894531 128.605469 17.007812 C 128.304688 17.125 128.015625 17.296875 127.761719 17.527344 C 127.511719 17.746094 127.3125 17.988281 127.1875 18.253906 C 127.0625 18.519531 126.992188 18.855469 126.992188 19.257812 L 126.992188 24.542969 L 125.195312 24.542969 L 125.195312 12.207031 Z M 125.195312 12.21875 "></path><path style=" stroke:none;fill-rule:nonzero;fill:rgb(100%,100%,100%);fill-opacity:1;" d="M 134.605469 22.085938 C 134.605469 21.484375 134.730469 20.988281 134.984375 20.609375 C 135.238281 20.226562 135.585938 19.917969 136.011719 19.695312 C 136.4375 19.476562 136.933594 19.316406 137.472656 19.222656 C 138.015625 19.132812 138.566406 19.0625 139.144531 19.039062 L 140.628906 18.992188 L 140.628906 18.648438 C 140.628906 17.941406 140.480469 17.433594 140.179688 17.136719 C 139.878906 16.835938 139.398438 16.675781 138.730469 16.675781 C 138.0625 16.675781 137.613281 16.777344 137.300781 16.996094 C 136.988281 17.214844 136.792969 17.515625 136.703125 17.910156 L 135.066406 17.734375 C 135.226562 16.894531 135.617188 16.28125 136.253906 15.890625 C 136.875 15.496094 137.738281 15.300781 138.808594 15.300781 C 140.109375 15.300781 141.03125 15.601562 141.574219 16.210938 C 142.117188 16.824219 142.390625 17.679688 142.390625 18.773438 L 142.390625 24.542969 L 140.664062 24.542969 L 140.664062 23.390625 C 140.328125 23.769531 139.925781 24.09375 139.441406 24.359375 C 138.960938 24.625 138.371094 24.75 137.667969 24.75 C 136.757812 24.75 136.023438 24.53125 135.457031 24.082031 C 134.894531 23.632812 134.617188 22.960938 134.617188 22.074219 Z M 136.402344 22.015625 C 136.402344 22.433594 136.527344 22.765625 136.78125 23.007812 C 137.035156 23.25 137.4375 23.378906 138.003906 23.378906 C 138.785156 23.378906 139.421875 23.183594 139.902344 22.789062 C 140.386719 22.398438 140.628906 21.832031 140.628906 21.082031 L 140.628906 20.183594 L 139.246094 20.226562 C 138.511719 20.25 137.933594 20.332031 137.519531 20.480469 C 137.105469 20.621094 136.816406 20.828125 136.644531 21.082031 C 136.484375 21.335938 136.390625 21.648438 136.390625 22.015625 Z M 136.402344 22.015625 "></path><path style=" stroke:none;fill-rule:nonzero;fill:rgb(100%,100%,100%);fill-opacity:1;" d="M 144.582031 15.589844 L 146.355469 15.589844 L 146.355469 16.90625 C 146.746094 16.375 147.171875 15.980469 147.644531 15.714844 C 148.117188 15.449219 148.601562 15.324219 149.09375 15.324219 C 149.742188 15.324219 150.269531 15.460938 150.683594 15.75 C 151.101562 16.027344 151.398438 16.429688 151.59375 16.949219 C 152.402344 15.867188 153.390625 15.324219 154.578125 15.324219 C 155.464844 15.324219 156.144531 15.566406 156.617188 16.0625 C 157.089844 16.558594 157.332031 17.332031 157.332031 18.382812 L 157.332031 24.566406 L 155.535156 24.566406 L 155.535156 18.761719 C 155.535156 18.023438 155.417969 17.527344 155.175781 17.261719 C 154.933594 16.996094 154.578125 16.871094 154.105469 16.871094 C 153.851562 16.871094 153.597656 16.917969 153.335938 16.996094 C 153.070312 17.078125 152.816406 17.238281 152.5625 17.457031 C 152.355469 17.644531 152.195312 17.863281 152.066406 18.105469 C 151.941406 18.347656 151.882812 18.636719 151.882812 18.957031 L 151.882812 24.578125 L 150.074219 24.578125 L 150.074219 18.773438 C 150.074219 18.070312 149.949219 17.574219 149.707031 17.296875 C 149.464844 17.019531 149.105469 16.871094 148.644531 16.871094 C 148.105469 16.871094 147.597656 17.089844 147.125 17.539062 C 146.941406 17.699219 146.769531 17.910156 146.617188 18.175781 C 146.46875 18.429688 146.386719 18.785156 146.386719 19.222656 L 146.386719 24.578125 L 144.589844 24.578125 L 144.589844 15.613281 Z M 144.582031 15.589844 "></path><path style=" stroke:none;fill-rule:nonzero;fill:rgb(100%,100%,100%);fill-opacity:1;" d="M 158.886719 20.160156 C 158.886719 19.121094 159.070312 18.242188 159.425781 17.527344 C 159.785156 16.8125 160.292969 16.257812 160.9375 15.890625 C 161.582031 15.519531 162.320312 15.324219 163.160156 15.324219 C 164.082031 15.324219 164.828125 15.507812 165.429688 15.890625 C 166.015625 16.257812 166.464844 16.777344 166.753906 17.445312 C 167.042969 18.105469 167.179688 18.878906 167.179688 19.730469 L 167.179688 20.527344 L 160.695312 20.527344 C 160.742188 21.449219 160.972656 22.167969 161.375 22.675781 C 161.777344 23.183594 162.375 23.449219 163.160156 23.449219 C 163.839844 23.449219 164.347656 23.320312 164.667969 23.054688 C 164.992188 22.800781 165.222656 22.445312 165.335938 21.992188 L 167.042969 21.992188 C 166.890625 22.882812 166.5 23.574219 165.855469 24.082031 C 165.222656 24.589844 164.3125 24.84375 163.160156 24.84375 C 161.789062 24.84375 160.742188 24.429688 159.992188 23.597656 C 159.253906 22.765625 158.875 21.625 158.875 20.160156 Z M 161.050781 17.941406 C 160.878906 18.335938 160.773438 18.785156 160.730469 19.292969 L 165.417969 19.292969 C 165.371094 18.4375 165.1875 17.792969 164.875 17.34375 C 164.566406 16.894531 163.988281 16.675781 163.160156 16.675781 C 162.605469 16.675781 162.15625 16.789062 161.824219 17.019531 C 161.488281 17.25 161.222656 17.5625 161.050781 17.953125 Z M 161.050781 17.941406 "></path><path style=" stroke:none;fill-rule:nonzero;fill:rgb(100%,100%,100%);fill-opacity:1;" d="M 168.804688 20.136719 C 168.804688 18.648438 169.148438 17.46875 169.851562 16.617188 C 170.554688 15.761719 171.511719 15.324219 172.730469 15.324219 C 173.203125 15.324219 173.675781 15.417969 174.136719 15.613281 C 174.597656 15.808594 175.035156 16.144531 175.425781 16.640625 L 175.425781 12.230469 L 177.234375 12.230469 L 177.234375 24.566406 L 175.472656 24.566406 L 175.472656 23.34375 C 175.105469 23.828125 174.691406 24.199219 174.21875 24.460938 C 173.746094 24.726562 173.191406 24.855469 172.546875 24.855469 C 171.695312 24.855469 170.992188 24.648438 170.4375 24.242188 C 169.886719 23.839844 169.472656 23.273438 169.195312 22.570312 C 168.917969 21.867188 168.792969 21.058594 168.792969 20.160156 Z M 170.667969 20.089844 C 170.667969 20.910156 170.785156 21.554688 171.003906 22.027344 C 171.222656 22.5 171.511719 22.835938 171.867188 23.042969 C 172.214844 23.238281 172.582031 23.34375 172.960938 23.34375 C 173.722656 23.34375 174.332031 23.089844 174.792969 22.582031 C 175.253906 22.074219 175.484375 21.347656 175.484375 20.390625 L 175.484375 19.835938 C 175.484375 18.785156 175.265625 18.023438 174.816406 17.539062 C 174.378906 17.054688 173.792969 16.8125 173.066406 16.8125 C 172.386719 16.8125 171.820312 17.066406 171.359375 17.5625 C 170.898438 18.058594 170.667969 18.914062 170.667969 20.089844 Z M 170.667969 20.089844 "></path><path style=" stroke:none;fill-rule:nonzero;fill:rgb(100%,100%,100%);fill-opacity:1;" d="M 186.4375 24.554688 L 184.675781 24.554688 L 184.675781 12.21875 L 186.472656 12.21875 L 186.472656 16.765625 C 186.828125 16.304688 187.246094 15.945312 187.726562 15.691406 C 188.199219 15.4375 188.753906 15.3125 189.375 15.3125 C 190.214844 15.3125 190.917969 15.507812 191.472656 15.902344 C 192.023438 16.292969 192.449219 16.835938 192.726562 17.539062 C 193.003906 18.242188 193.140625 19.0625 193.140625 19.996094 C 193.140625 21.496094 192.796875 22.675781 192.09375 23.539062 C 191.390625 24.40625 190.433594 24.832031 189.214844 24.832031 C 188.707031 24.832031 188.210938 24.726562 187.726562 24.507812 C 187.246094 24.300781 186.820312 23.933594 186.449219 23.425781 L 186.449219 24.542969 Z M 186.472656 19.753906 L 186.472656 20.308594 C 186.472656 21.382812 186.691406 22.15625 187.140625 22.628906 C 187.589844 23.101562 188.167969 23.34375 188.867188 23.34375 C 189.570312 23.34375 190.125 23.089844 190.574219 22.582031 C 191.023438 22.074219 191.242188 21.230469 191.242188 20.042969 C 191.242188 19.222656 191.125 18.578125 190.917969 18.105469 C 190.699219 17.632812 190.421875 17.296875 190.078125 17.089844 C 189.734375 16.882812 189.363281 16.789062 188.972656 16.789062 C 188.246094 16.789062 187.648438 17.042969 187.175781 17.539062 C 186.703125 18.035156 186.472656 18.773438 186.472656 19.742188 Z M 186.472656 19.753906 "></path><path style=" stroke:none;fill-rule:nonzero;fill:rgb(100%,100%,100%);fill-opacity:1;" d="M 195.054688 12.207031 L 196.898438 12.207031 L 196.898438 14.054688 L 195.054688 14.054688 Z M 195.089844 15.589844 L 196.898438 15.589844 L 196.898438 24.554688 L 195.089844 24.554688 Z M 195.089844 15.589844 "></path><path style=" stroke:none;fill-rule:nonzero;fill:rgb(100%,100%,100%);fill-opacity:1;" d="M 199.167969 15.589844 L 200.941406 15.589844 L 200.941406 16.882812 C 201.390625 16.316406 201.871094 15.914062 202.378906 15.671875 C 202.886719 15.425781 203.429688 15.3125 203.96875 15.3125 C 204.972656 15.3125 205.71875 15.589844 206.214844 16.15625 C 206.710938 16.707031 206.953125 17.527344 206.953125 18.578125 L 206.953125 24.554688 L 205.15625 24.554688 L 205.15625 18.925781 C 205.15625 18.175781 205.019531 17.644531 204.742188 17.320312 C 204.464844 17.007812 204.050781 16.847656 203.484375 16.847656 C 203.175781 16.847656 202.863281 16.90625 202.5625 17.019531 C 202.265625 17.136719 201.976562 17.308594 201.722656 17.539062 C 201.46875 17.757812 201.273438 18 201.148438 18.265625 C 201.019531 18.53125 200.953125 18.867188 200.953125 19.269531 L 200.953125 24.554688 L 199.15625 24.554688 L 199.15625 15.589844 Z M 199.167969 15.589844 "></path><path style=" stroke:none;fill-rule:nonzero;fill:rgb(100%,100%,100%);fill-opacity:1;" d="M 213.414062 23.113281 L 220.222656 13.871094 L 213.53125 13.871094 L 213.53125 12.230469 L 222.46875 12.230469 L 222.46875 13.695312 L 215.671875 22.90625 L 222.710938 22.90625 L 222.457031 24.566406 L 213.414062 24.566406 Z M 213.414062 23.113281 "></path><path style=" stroke:none;fill-rule:nonzero;fill:rgb(100%,100%,100%);fill-opacity:1;" d="M 223.710938 22.085938 C 223.710938 21.484375 223.839844 20.988281 224.09375 20.609375 C 224.34375 20.226562 224.691406 19.917969 225.117188 19.695312 C 225.542969 19.476562 226.039062 19.316406 226.582031 19.222656 C 227.121094 19.132812 227.675781 19.0625 228.25 19.039062 L 229.734375 18.992188 L 229.734375 18.648438 C 229.734375 17.941406 229.585938 17.433594 229.285156 17.136719 C 228.988281 16.835938 228.503906 16.675781 227.835938 16.675781 C 227.167969 16.675781 226.71875 16.777344 226.40625 16.996094 C 226.097656 17.214844 225.902344 17.515625 225.808594 17.910156 L 224.171875 17.734375 C 224.335938 16.894531 224.726562 16.28125 225.359375 15.890625 C 225.980469 15.496094 226.84375 15.300781 227.917969 15.300781 C 229.21875 15.300781 230.140625 15.601562 230.679688 16.210938 C 231.222656 16.824219 231.5 17.679688 231.5 18.773438 L 231.5 24.542969 L 229.769531 24.542969 L 229.769531 23.390625 C 229.4375 23.769531 229.035156 24.09375 228.550781 24.359375 C 228.066406 24.625 227.480469 24.75 226.777344 24.75 C 225.867188 24.75 225.128906 24.53125 224.5625 24.082031 C 224 23.632812 223.722656 22.960938 223.722656 22.074219 Z M 225.496094 22.015625 C 225.496094 22.433594 225.625 22.765625 225.878906 23.007812 C 226.132812 23.25 226.535156 23.378906 227.097656 23.378906 C 227.882812 23.378906 228.515625 23.183594 229 22.789062 C 229.484375 22.398438 229.726562 21.832031 229.726562 21.082031 L 229.726562 20.183594 L 228.34375 20.226562 C 227.605469 20.25 227.03125 20.332031 226.613281 20.480469 C 226.199219 20.621094 225.910156 20.828125 225.738281 21.082031 C 225.578125 21.335938 225.484375 21.648438 225.484375 22.015625 Z M 225.496094 22.015625 "></path><path style=" stroke:none;fill-rule:nonzero;fill:rgb(100%,100%,100%);fill-opacity:1;" d="M 233.699219 26.425781 C 234.042969 26.539062 234.367188 26.597656 234.675781 26.597656 C 235.035156 26.597656 235.3125 26.492188 235.507812 26.273438 C 235.703125 26.054688 235.910156 25.675781 236.128906 25.109375 L 236.453125 24.242188 L 232.671875 15.589844 L 234.710938 15.589844 L 237.339844 22.257812 L 239.734375 15.589844 L 241.667969 15.589844 L 237.820312 25.269531 C 237.582031 25.894531 237.339844 26.414062 237.085938 26.828125 C 236.84375 27.242188 236.542969 27.566406 236.210938 27.773438 C 235.875 27.980469 235.449219 28.097656 234.929688 28.097656 C 234.644531 28.097656 234.378906 28.074219 234.136719 28.039062 C 233.894531 27.992188 233.640625 27.9375 233.363281 27.84375 L 233.6875 26.425781 Z M 233.699219 26.425781 "></path><path style=" stroke:none;fill-rule:nonzero;fill:rgb(100%,100%,100%);fill-opacity:1;" d="M 242.28125 20.160156 C 242.28125 19.121094 242.464844 18.242188 242.820312 17.527344 C 243.179688 16.8125 243.683594 16.257812 244.328125 15.890625 C 244.976562 15.519531 245.710938 15.324219 246.554688 15.324219 C 247.472656 15.324219 248.222656 15.507812 248.820312 15.890625 C 249.410156 16.257812 249.859375 16.777344 250.148438 17.445312 C 250.433594 18.105469 250.574219 18.878906 250.574219 19.730469 L 250.574219 20.527344 L 244.089844 20.527344 C 244.132812 21.449219 244.363281 22.167969 244.769531 22.675781 C 245.171875 23.183594 245.769531 23.449219 246.554688 23.449219 C 247.234375 23.449219 247.738281 23.320312 248.0625 23.054688 C 248.382812 22.800781 248.613281 22.445312 248.730469 21.992188 L 250.433594 21.992188 C 250.285156 22.882812 249.894531 23.574219 249.25 24.082031 C 248.613281 24.589844 247.703125 24.84375 246.554688 24.84375 C 245.183594 24.84375 244.132812 24.429688 243.386719 23.597656 C 242.648438 22.765625 242.269531 21.625 242.269531 20.160156 Z M 244.433594 17.941406 C 244.261719 18.335938 244.15625 18.785156 244.109375 19.292969 L 248.800781 19.292969 C 248.753906 18.4375 248.570312 17.792969 248.257812 17.34375 C 247.945312 16.894531 247.371094 16.675781 246.542969 16.675781 C 245.988281 16.675781 245.539062 16.789062 245.207031 17.019531 C 244.871094 17.25 244.605469 17.5625 244.433594 17.953125 Z M 244.433594 17.941406 "></path><path style=" stroke:none;fill-rule:nonzero;fill:rgb(100%,100%,100%);fill-opacity:1;" d="M 252.195312 20.136719 C 252.195312 18.648438 252.542969 17.46875 253.246094 16.617188 C 253.949219 15.761719 254.902344 15.324219 256.125 15.324219 C 256.597656 15.324219 257.070312 15.417969 257.53125 15.613281 C 257.992188 15.808594 258.429688 16.144531 258.820312 16.640625 L 258.820312 12.230469 L 260.628906 12.230469 L 260.628906 24.566406 L 258.867188 24.566406 L 258.867188 23.34375 C 258.496094 23.828125 258.082031 24.199219 257.609375 24.460938 C 257.136719 24.726562 256.585938 24.855469 255.941406 24.855469 C 255.089844 24.855469 254.386719 24.648438 253.832031 24.242188 C 253.28125 23.839844 252.867188 23.273438 252.589844 22.570312 C 252.3125 21.867188 252.1875 21.058594 252.1875 20.160156 Z M 254.0625 20.089844 C 254.0625 20.910156 254.179688 21.554688 254.398438 22.027344 C 254.617188 22.5 254.902344 22.835938 255.261719 23.042969 C 255.605469 23.238281 255.976562 23.34375 256.355469 23.34375 C 257.117188 23.34375 257.726562 23.089844 258.1875 22.582031 C 258.648438 22.074219 258.878906 21.347656 258.878906 20.390625 L 258.878906 19.835938 C 258.878906 18.785156 258.660156 18.023438 258.210938 17.539062 C 257.773438 17.054688 257.183594 16.8125 256.460938 16.8125 C 255.78125 16.8125 255.214844 17.066406 254.753906 17.5625 C 254.292969 18.058594 254.0625 18.914062 254.0625 20.089844 Z M 254.0625 20.089844 "></path><path style=" stroke:none;fill-rule:nonzero;fill:rgb(100%,100%,100%);fill-opacity:1;" d="M 100.246094 38.078125 L 100.246094 30.738281 L 102.144531 30.738281 L 102.144531 38.171875 C 102.144531 39.359375 102.375 40.25 102.824219 40.835938 C 103.273438 41.425781 104.011719 41.726562 105.027344 41.726562 C 106.039062 41.726562 106.789062 41.425781 107.214844 40.835938 C 107.640625 40.25 107.847656 39.347656 107.847656 38.171875 L 107.847656 30.738281 L 109.761719 30.738281 L 109.761719 38.148438 C 109.761719 39.972656 109.34375 41.296875 108.503906 42.128906 C 107.664062 42.960938 106.488281 43.386719 104.992188 43.386719 C 103.492188 43.386719 102.285156 42.972656 101.476562 42.128906 C 100.660156 41.285156 100.257812 39.9375 100.257812 38.089844 Z M 100.246094 38.078125 "></path><path style=" stroke:none;fill-rule:nonzero;fill:rgb(100%,100%,100%);fill-opacity:1;" d="M 112.074219 34.109375 L 113.847656 34.109375 L 113.847656 35.402344 C 114.296875 34.835938 114.78125 34.433594 115.289062 34.191406 C 115.796875 33.949219 116.335938 33.832031 116.878906 33.832031 C 117.878906 33.832031 118.628906 34.109375 119.125 34.675781 C 119.621094 35.230469 119.863281 36.046875 119.863281 37.097656 L 119.863281 43.074219 L 118.066406 43.074219 L 118.066406 37.445312 C 118.066406 36.695312 117.925781 36.164062 117.648438 35.839844 C 117.375 35.527344 116.960938 35.367188 116.394531 35.367188 C 116.082031 35.367188 115.773438 35.425781 115.472656 35.539062 C 115.171875 35.65625 114.886719 35.828125 114.632812 36.058594 C 114.378906 36.277344 114.183594 36.519531 114.054688 36.785156 C 113.929688 37.050781 113.859375 37.386719 113.859375 37.789062 L 113.859375 43.074219 L 112.0625 43.074219 L 112.0625 34.109375 Z M 112.074219 34.109375 "></path><path style=" stroke:none;fill-rule:nonzero;fill:rgb(100%,100%,100%);fill-opacity:1;" d="M 122.027344 30.71875 L 123.871094 30.71875 L 123.871094 32.5625 L 122.027344 32.5625 Z M 122.0625 34.109375 L 123.871094 34.109375 L 123.871094 43.074219 L 122.0625 43.074219 Z M 122.0625 34.109375 "></path><path style=" stroke:none;fill-rule:nonzero;fill:rgb(100%,100%,100%);fill-opacity:1;" d="M 129.628906 41.171875 L 132.128906 34.109375 L 134.074219 34.109375 L 130.5625 43.074219 L 128.628906 43.074219 L 125.125 34.109375 L 127.164062 34.109375 Z M 129.628906 41.171875 "></path><path style=" stroke:none;fill-rule:nonzero;fill:rgb(100%,100%,100%);fill-opacity:1;" d="M 134.753906 38.667969 C 134.753906 37.628906 134.9375 36.75 135.296875 36.035156 C 135.652344 35.320312 136.160156 34.765625 136.804688 34.398438 C 137.449219 34.027344 138.1875 33.832031 139.027344 33.832031 C 139.949219 33.832031 140.699219 34.015625 141.296875 34.398438 C 141.886719 34.765625 142.335938 35.285156 142.621094 35.957031 C 142.910156 36.613281 143.046875 37.386719 143.046875 38.242188 L 143.046875 39.035156 L 136.5625 39.035156 C 136.609375 39.960938 136.839844 40.675781 137.242188 41.183594 C 137.644531 41.691406 138.246094 41.957031 139.027344 41.957031 C 139.707031 41.957031 140.214844 41.828125 140.539062 41.5625 C 140.859375 41.308594 141.089844 40.953125 141.207031 40.503906 L 142.910156 40.503906 C 142.761719 41.390625 142.367188 42.082031 141.722656 42.589844 C 141.089844 43.097656 140.179688 43.351562 139.027344 43.351562 C 137.65625 43.351562 136.609375 42.9375 135.859375 42.105469 C 135.125 41.273438 134.742188 40.132812 134.742188 38.667969 Z M 136.910156 36.453125 C 136.734375 36.84375 136.632812 37.292969 136.585938 37.800781 L 141.273438 37.800781 C 141.226562 36.949219 141.042969 36.300781 140.734375 35.851562 C 140.421875 35.402344 139.847656 35.183594 139.015625 35.183594 C 138.464844 35.183594 138.015625 35.296875 137.679688 35.527344 C 137.347656 35.757812 137.082031 36.070312 136.910156 36.464844 Z M 136.910156 36.453125 "></path><path style=" stroke:none;fill-rule:nonzero;fill:rgb(100%,100%,100%);fill-opacity:1;" d="M 144.960938 34.109375 L 146.734375 34.109375 L 146.734375 35.4375 C 147.066406 34.964844 147.449219 34.59375 147.886719 34.339844 C 148.324219 34.085938 148.796875 33.949219 149.3125 33.949219 C 149.476562 33.949219 149.625 33.949219 149.753906 33.972656 C 149.878906 33.992188 150.003906 34.003906 150.121094 34.027344 L 149.902344 35.65625 C 149.785156 35.632812 149.671875 35.609375 149.542969 35.597656 C 149.417969 35.585938 149.292969 35.574219 149.152344 35.574219 C 148.875 35.574219 148.601562 35.621094 148.324219 35.714844 C 148.046875 35.804688 147.78125 35.957031 147.527344 36.164062 C 147.285156 36.382812 147.101562 36.625 146.964844 36.902344 C 146.828125 37.179688 146.757812 37.5 146.757812 37.871094 L 146.757812 43.074219 L 144.960938 43.074219 Z M 144.960938 34.109375 "></path><path style=" stroke:none;fill-rule:nonzero;fill:rgb(100%,100%,100%);fill-opacity:1;" d="M 156.917969 40.675781 C 156.917969 40.339844 156.824219 40.0625 156.640625 39.832031 C 156.457031 39.601562 156.0625 39.441406 155.453125 39.347656 L 154.347656 39.175781 C 153.3125 39.003906 152.527344 38.726562 152 38.332031 C 151.46875 37.953125 151.191406 37.339844 151.191406 36.507812 C 151.191406 35.945312 151.351562 35.460938 151.664062 35.066406 C 151.976562 34.675781 152.414062 34.363281 152.953125 34.15625 C 153.496094 33.949219 154.128906 33.832031 154.820312 33.832031 C 155.683594 33.832031 156.363281 33.949219 156.871094 34.15625 C 157.378906 34.375 157.757812 34.675781 158.023438 35.042969 C 158.289062 35.414062 158.460938 35.851562 158.5625 36.335938 L 156.929688 36.554688 C 156.777344 36.105469 156.570312 35.769531 156.292969 35.539062 C 156.019531 35.308594 155.546875 35.195312 154.867188 35.195312 C 154.128906 35.195312 153.621094 35.320312 153.335938 35.5625 C 153.058594 35.804688 152.90625 36.09375 152.90625 36.40625 C 152.90625 36.75 153.011719 37.015625 153.21875 37.214844 C 153.425781 37.410156 153.839844 37.558594 154.472656 37.664062 L 155.71875 37.871094 C 156.800781 38.054688 157.574219 38.355469 158.035156 38.78125 C 158.496094 39.210938 158.726562 39.832031 158.726562 40.664062 C 158.726562 41.449219 158.425781 42.09375 157.816406 42.589844 C 157.203125 43.085938 156.28125 43.339844 155.050781 43.339844 C 154.300781 43.339844 153.632812 43.25 153.035156 43.050781 C 152.4375 42.867188 151.953125 42.554688 151.59375 42.117188 C 151.238281 41.691406 151.03125 41.113281 150.984375 40.398438 L 152.710938 40.398438 C 152.804688 40.964844 153.046875 41.367188 153.425781 41.597656 C 153.804688 41.828125 154.335938 41.957031 155.003906 41.957031 C 155.707031 41.957031 156.203125 41.839844 156.492188 41.597656 C 156.777344 41.367188 156.917969 41.042969 156.917969 40.652344 Z M 156.917969 40.675781 "></path><path style=" stroke:none;fill-rule:nonzero;fill:rgb(100%,100%,100%);fill-opacity:1;" d="M 160.535156 30.71875 L 162.375 30.71875 L 162.375 32.5625 L 160.535156 32.5625 Z M 160.566406 34.109375 L 162.375 34.109375 L 162.375 43.074219 L 160.566406 43.074219 Z M 160.566406 34.109375 "></path><path style=" stroke:none;fill-rule:nonzero;fill:rgb(100%,100%,100%);fill-opacity:1;" d="M 165.210938 40.085938 L 165.210938 35.539062 L 163.816406 35.539062 L 163.816406 34.109375 L 165.210938 34.109375 L 165.210938 31.6875 L 167.007812 31.6875 L 167.007812 34.109375 L 169.300781 34.109375 L 169.300781 35.539062 L 167.007812 35.539062 L 167.007812 40.398438 C 167.007812 40.824219 167.097656 41.160156 167.292969 41.414062 C 167.480469 41.65625 167.777344 41.78125 168.171875 41.78125 C 168.402344 41.78125 168.609375 41.769531 168.804688 41.738281 C 169 41.703125 169.160156 41.667969 169.308594 41.621094 L 169.597656 42.984375 C 169.34375 43.0625 169.078125 43.132812 168.792969 43.191406 C 168.503906 43.25 168.171875 43.269531 167.789062 43.269531 C 167.097656 43.269531 166.570312 43.144531 166.199219 42.878906 C 165.832031 42.625 165.578125 42.257812 165.429688 41.769531 C 165.289062 41.296875 165.210938 40.734375 165.210938 40.085938 Z M 165.210938 40.085938 "></path><path style=" stroke:none;fill-rule:nonzero;fill:rgb(100%,100%,100%);fill-opacity:1;" d="M 171.175781 44.945312 C 171.523438 45.058594 171.84375 45.117188 172.15625 45.117188 C 172.511719 45.117188 172.789062 45.015625 172.984375 44.792969 C 173.179688 44.574219 173.386719 44.195312 173.605469 43.628906 L 173.929688 42.765625 L 170.152344 34.109375 L 172.191406 34.109375 L 174.816406 40.777344 L 177.210938 34.109375 L 179.148438 34.109375 L 175.300781 43.789062 C 175.058594 44.414062 174.816406 44.933594 174.5625 45.347656 C 174.320312 45.765625 174.019531 46.085938 173.6875 46.292969 C 173.351562 46.503906 172.925781 46.617188 172.410156 46.617188 C 172.121094 46.617188 171.855469 46.59375 171.613281 46.558594 C 171.371094 46.515625 171.117188 46.457031 170.84375 46.363281 L 171.164062 44.945312 Z M 171.175781 44.945312 "></path><path style=" stroke:none;fill-rule:nonzero;fill:rgb(100%,100%,100%);fill-opacity:1;" d="M 183.925781 38.609375 C 183.925781 37.628906 184.113281 36.785156 184.46875 36.070312 C 184.824219 35.355469 185.34375 34.800781 186 34.410156 C 186.65625 34.015625 187.441406 33.820312 188.339844 33.820312 C 189.710938 33.820312 190.78125 34.246094 191.550781 35.089844 C 192.324219 35.933594 192.703125 37.085938 192.703125 38.539062 C 192.703125 39.996094 192.3125 41.195312 191.519531 42.058594 C 190.734375 42.914062 189.652344 43.351562 188.28125 43.351562 C 186.910156 43.351562 185.828125 42.9375 185.066406 42.09375 C 184.308594 41.253906 183.914062 40.097656 183.914062 38.621094 Z M 185.804688 38.585938 C 185.804688 39.566406 186 40.351562 186.390625 40.964844 C 186.785156 41.5625 187.417969 41.875 188.304688 41.875 C 189.191406 41.875 189.835938 41.574219 190.226562 40.964844 C 190.621094 40.351562 190.828125 39.554688 190.828125 38.574219 C 190.828125 37.59375 190.632812 36.84375 190.226562 36.234375 C 189.835938 35.632812 189.191406 35.320312 188.304688 35.320312 C 187.417969 35.320312 186.796875 35.621094 186.402344 36.234375 C 186.011719 36.832031 185.804688 37.628906 185.804688 38.585938 Z M 185.804688 38.585938 "></path><path style=" stroke:none;fill-rule:nonzero;fill:rgb(100%,100%,100%);fill-opacity:1;" d="M 195.226562 35.609375 L 193.832031 35.609375 L 193.832031 34.179688 L 195.226562 34.179688 L 195.226562 33.507812 C 195.226562 32.515625 195.503906 31.789062 196.054688 31.316406 C 196.609375 30.84375 197.289062 30.613281 198.09375 30.613281 C 198.359375 30.613281 198.625 30.636719 198.902344 30.660156 C 199.175781 30.695312 199.453125 30.75 199.730469 30.832031 L 199.453125 32.195312 C 199.269531 32.136719 199.097656 32.101562 198.9375 32.078125 C 198.773438 32.054688 198.613281 32.054688 198.453125 32.054688 C 198.050781 32.054688 197.714844 32.160156 197.4375 32.367188 C 197.171875 32.574219 197.035156 32.945312 197.035156 33.476562 L 197.035156 34.179688 L 199.246094 34.179688 L 199.246094 35.609375 L 197.035156 35.609375 L 197.035156 43.074219 L 195.226562 43.074219 Z M 195.226562 35.609375 "></path><path style=" stroke:none;fill-rule:nonzero;fill:rgb(100%,100%,100%);fill-opacity:1;" d="M 108.089844 58.351562 L 103 58.351562 L 101.8125 61.582031 L 99.84375 61.582031 L 104.53125 49.25 L 106.636719 49.25 L 111.316406 61.582031 L 109.277344 61.582031 Z M 105.542969 51.199219 L 103.539062 56.726562 L 107.535156 56.726562 L 105.53125 51.199219 Z M 105.542969 51.199219 "></path><path style=" stroke:none;fill-rule:nonzero;fill:rgb(100%,100%,100%);fill-opacity:1;" d="M 112.652344 52.617188 L 114.425781 52.617188 L 114.425781 53.945312 C 114.757812 53.472656 115.140625 53.101562 115.578125 52.847656 C 116.015625 52.59375 116.488281 52.457031 117.003906 52.457031 C 117.167969 52.457031 117.316406 52.457031 117.441406 52.480469 C 117.570312 52.503906 117.695312 52.515625 117.8125 52.539062 L 117.59375 54.164062 C 117.476562 54.140625 117.363281 54.117188 117.234375 54.105469 C 117.109375 54.09375 116.980469 54.082031 116.84375 54.082031 C 116.566406 54.082031 116.289062 54.128906 116.015625 54.222656 C 115.738281 54.3125 115.472656 54.464844 115.21875 54.671875 C 114.976562 54.890625 114.792969 55.132812 114.65625 55.410156 C 114.515625 55.6875 114.449219 56.011719 114.449219 56.378906 L 114.449219 61.582031 L 112.652344 61.582031 Z M 112.652344 52.617188 "></path><path style=" stroke:none;fill-rule:nonzero;fill:rgb(100%,100%,100%);fill-opacity:1;" d="M 120.070312 58.59375 L 120.070312 54.050781 L 118.675781 54.050781 L 118.675781 52.617188 L 120.070312 52.617188 L 120.070312 50.195312 L 121.867188 50.195312 L 121.867188 52.617188 L 124.15625 52.617188 L 124.15625 54.050781 L 121.867188 54.050781 L 121.867188 58.90625 C 121.867188 59.332031 121.957031 59.667969 122.152344 59.921875 C 122.339844 60.164062 122.636719 60.292969 123.027344 60.292969 C 123.257812 60.292969 123.46875 60.28125 123.664062 60.246094 C 123.859375 60.210938 124.019531 60.175781 124.167969 60.128906 L 124.457031 61.492188 C 124.203125 61.574219 123.9375 61.640625 123.652344 61.699219 C 123.363281 61.757812 123.027344 61.78125 122.648438 61.78125 C 121.957031 61.78125 121.429688 61.652344 121.058594 61.386719 C 120.691406 61.132812 120.4375 60.765625 120.289062 60.28125 C 120.148438 59.808594 120.070312 59.242188 120.070312 58.59375 Z M 120.070312 58.59375 "></path><path style=" stroke:none;fill-rule:nonzero;fill:rgb(100%,100%,100%);fill-opacity:1;" d="M 125.734375 49.238281 L 127.578125 49.238281 L 127.578125 51.082031 L 125.734375 51.082031 Z M 125.769531 52.617188 L 127.578125 52.617188 L 127.578125 61.582031 L 125.769531 61.582031 Z M 125.769531 52.617188 "></path><path style=" stroke:none;fill-rule:nonzero;fill:rgb(100%,100%,100%);fill-opacity:1;" d="M 130.414062 54.117188 L 129.019531 54.117188 L 129.019531 52.6875 L 130.414062 52.6875 L 130.414062 52.019531 C 130.414062 51.027344 130.6875 50.296875 131.242188 49.824219 C 131.792969 49.351562 132.472656 49.121094 133.28125 49.121094 C 133.546875 49.121094 133.808594 49.144531 134.085938 49.167969 C 134.363281 49.203125 134.640625 49.261719 134.917969 49.339844 L 134.640625 50.703125 C 134.457031 50.644531 134.28125 50.609375 134.121094 50.585938 C 133.960938 50.5625 133.800781 50.5625 133.636719 50.5625 C 133.234375 50.5625 132.902344 50.667969 132.625 50.875 C 132.359375 51.082031 132.222656 51.453125 132.222656 51.984375 L 132.222656 52.6875 L 134.433594 52.6875 L 134.433594 54.117188 L 132.222656 54.117188 L 132.222656 61.582031 L 130.414062 61.582031 Z M 135.859375 49.238281 L 137.703125 49.238281 L 137.703125 51.082031 L 135.859375 51.082031 Z M 135.894531 52.617188 L 137.703125 52.617188 L 137.703125 61.582031 L 135.894531 61.582031 Z M 135.894531 52.617188 "></path><path style=" stroke:none;fill-rule:nonzero;fill:rgb(100%,100%,100%);fill-opacity:1;" d="M 139.695312 57.140625 C 139.695312 56.171875 139.871094 55.328125 140.214844 54.613281 C 140.558594 53.898438 141.054688 53.332031 141.710938 52.941406 C 142.367188 52.550781 143.140625 52.339844 144.027344 52.339844 C 145.121094 52.339844 145.972656 52.605469 146.585938 53.148438 C 147.195312 53.691406 147.585938 54.429688 147.734375 55.375 L 145.960938 55.664062 C 145.859375 55.121094 145.664062 54.683594 145.386719 54.335938 C 145.109375 53.992188 144.636719 53.816406 143.992188 53.816406 C 143.417969 53.816406 142.957031 53.957031 142.597656 54.246094 C 142.242188 54.535156 141.988281 54.925781 141.828125 55.410156 C 141.667969 55.894531 141.585938 56.460938 141.585938 57.082031 C 141.585938 57.707031 141.667969 58.261719 141.816406 58.757812 C 141.964844 59.253906 142.21875 59.644531 142.574219 59.933594 C 142.921875 60.222656 143.394531 60.359375 143.980469 60.359375 C 144.648438 60.359375 145.144531 60.1875 145.46875 59.851562 C 145.789062 59.519531 145.996094 59.046875 146.089844 58.457031 L 147.863281 58.457031 C 147.726562 59.507812 147.332031 60.328125 146.675781 60.9375 C 146.03125 61.539062 145.109375 61.847656 143.945312 61.847656 C 142.566406 61.847656 141.515625 61.421875 140.789062 60.578125 C 140.066406 59.738281 139.707031 58.582031 139.707031 57.128906 Z M 139.695312 57.140625 "></path><path style=" stroke:none;fill-rule:nonzero;fill:rgb(100%,100%,100%);fill-opacity:1;" d="M 149.660156 49.238281 L 151.503906 49.238281 L 151.503906 51.082031 L 149.660156 51.082031 Z M 149.695312 52.617188 L 151.503906 52.617188 L 151.503906 61.582031 L 149.695312 61.582031 Z M 149.695312 52.617188 "></path><path style=" stroke:none;fill-rule:nonzero;fill:rgb(100%,100%,100%);fill-opacity:1;" d="M 153.207031 59.113281 C 153.207031 58.515625 153.335938 58.019531 153.585938 57.636719 C 153.839844 57.257812 154.1875 56.945312 154.613281 56.726562 C 155.039062 56.507812 155.535156 56.34375 156.074219 56.253906 C 156.617188 56.160156 157.171875 56.089844 157.746094 56.066406 L 159.230469 56.023438 L 159.230469 55.675781 C 159.230469 54.972656 159.082031 54.464844 158.78125 54.164062 C 158.484375 53.863281 158 53.703125 157.332031 53.703125 C 156.664062 53.703125 156.214844 53.808594 155.902344 54.027344 C 155.59375 54.246094 155.394531 54.546875 155.304688 54.9375 L 153.667969 54.765625 C 153.828125 53.921875 154.222656 53.308594 154.855469 52.917969 C 155.476562 52.527344 156.339844 52.328125 157.410156 52.328125 C 158.714844 52.328125 159.636719 52.628906 160.175781 53.242188 C 160.71875 53.851562 160.992188 54.707031 160.992188 55.804688 L 160.992188 61.574219 L 159.265625 61.574219 L 159.265625 60.417969 C 158.933594 60.800781 158.527344 61.121094 158.046875 61.386719 C 157.5625 61.652344 156.972656 61.78125 156.269531 61.78125 C 155.363281 61.78125 154.625 61.5625 154.058594 61.109375 C 153.496094 60.660156 153.21875 59.992188 153.21875 59.101562 Z M 155.003906 59.046875 C 155.003906 59.460938 155.132812 59.796875 155.382812 60.039062 C 155.636719 60.28125 156.042969 60.40625 156.605469 60.40625 C 157.390625 60.40625 158.023438 60.210938 158.507812 59.820312 C 158.988281 59.425781 159.230469 58.859375 159.230469 58.109375 L 159.230469 57.210938 L 157.847656 57.257812 C 157.113281 57.28125 156.535156 57.359375 156.121094 57.511719 C 155.707031 57.648438 155.417969 57.855469 155.246094 58.109375 C 155.085938 58.363281 154.992188 58.675781 154.992188 59.046875 Z M 155.003906 59.046875 "></path><path style=" stroke:none;fill-rule:nonzero;fill:rgb(100%,100%,100%);fill-opacity:1;" d="M 163.195312 49.25 L 165.003906 49.25 L 165.003906 61.582031 L 163.195312 61.582031 Z M 163.195312 49.25 "></path><path style=" stroke:none;fill-rule:nonzero;fill:rgb(100%,100%,100%);fill-opacity:1;" d="M 171.269531 49.25 L 173.179688 49.25 L 173.179688 61.582031 L 171.269531 61.582031 Z M 171.269531 49.25 "></path><path style=" stroke:none;fill-rule:nonzero;fill:rgb(100%,100%,100%);fill-opacity:1;" d="M 175.621094 52.617188 L 177.394531 52.617188 L 177.394531 53.910156 C 177.84375 53.34375 178.328125 52.941406 178.835938 52.699219 C 179.34375 52.457031 179.882812 52.339844 180.425781 52.339844 C 181.429688 52.339844 182.175781 52.617188 182.671875 53.183594 C 183.167969 53.738281 183.410156 54.558594 183.410156 55.605469 L 183.410156 61.582031 L 181.613281 61.582031 L 181.613281 55.953125 C 181.613281 55.203125 181.472656 54.671875 181.199219 54.347656 C 180.921875 54.039062 180.507812 53.875 179.941406 53.875 C 179.632812 53.875 179.320312 53.933594 179.019531 54.050781 C 178.722656 54.164062 178.433594 54.335938 178.179688 54.566406 C 177.925781 54.789062 177.730469 55.03125 177.605469 55.296875 C 177.476562 55.5625 177.40625 55.894531 177.40625 56.300781 L 177.40625 61.582031 L 175.609375 61.582031 L 175.609375 52.617188 Z M 175.621094 52.617188 "></path><path style=" stroke:none;fill-rule:nonzero;fill:rgb(100%,100%,100%);fill-opacity:1;" d="M 186.160156 58.59375 L 186.160156 54.050781 L 184.769531 54.050781 L 184.769531 52.617188 L 186.160156 52.617188 L 186.160156 50.195312 L 187.957031 50.195312 L 187.957031 52.617188 L 190.25 52.617188 L 190.25 54.050781 L 187.957031 54.050781 L 187.957031 58.90625 C 187.957031 59.332031 188.050781 59.667969 188.246094 59.921875 C 188.429688 60.164062 188.730469 60.292969 189.121094 60.292969 C 189.351562 60.292969 189.558594 60.28125 189.753906 60.246094 C 189.953125 60.210938 190.113281 60.175781 190.261719 60.128906 L 190.550781 61.492188 C 190.296875 61.574219 190.03125 61.640625 189.742188 61.699219 C 189.457031 61.757812 189.121094 61.78125 188.742188 61.78125 C 188.050781 61.78125 187.519531 61.652344 187.152344 61.386719 C 186.785156 61.132812 186.53125 60.765625 186.378906 60.28125 C 186.242188 59.808594 186.160156 59.242188 186.160156 58.59375 Z M 186.160156 58.59375 "></path><path style=" stroke:none;fill-rule:nonzero;fill:rgb(100%,100%,100%);fill-opacity:1;" d="M 191.550781 57.175781 C 191.550781 56.136719 191.738281 55.261719 192.09375 54.546875 C 192.449219 53.828125 192.957031 53.277344 193.601562 52.90625 C 194.246094 52.539062 194.984375 52.339844 195.824219 52.339844 C 196.746094 52.339844 197.496094 52.527344 198.09375 52.90625 C 198.683594 53.277344 199.132812 53.796875 199.417969 54.464844 C 199.707031 55.121094 199.847656 55.894531 199.847656 56.75 L 199.847656 57.546875 L 193.359375 57.546875 C 193.40625 58.46875 193.636719 59.183594 194.039062 59.691406 C 194.445312 60.199219 195.042969 60.464844 195.824219 60.464844 C 196.503906 60.464844 197.011719 60.335938 197.335938 60.074219 C 197.65625 59.820312 197.886719 59.460938 198.003906 59.011719 L 199.707031 59.011719 C 199.558594 59.898438 199.167969 60.589844 198.519531 61.097656 C 197.886719 61.605469 196.976562 61.859375 195.824219 61.859375 C 194.457031 61.859375 193.40625 61.445312 192.660156 60.613281 C 191.921875 59.785156 191.539062 58.640625 191.539062 57.175781 Z M 193.707031 54.972656 C 193.535156 55.363281 193.429688 55.8125 193.382812 56.320312 L 198.070312 56.320312 C 198.027344 55.46875 197.839844 54.820312 197.53125 54.371094 C 197.21875 53.921875 196.644531 53.703125 195.8125 53.703125 C 195.261719 53.703125 194.8125 53.816406 194.476562 54.050781 C 194.144531 54.28125 193.878906 54.589844 193.707031 54.984375 Z M 193.707031 54.972656 "></path><path style=" stroke:none;fill-rule:nonzero;fill:rgb(100%,100%,100%);fill-opacity:1;" d="M 201.78125 49.25 L 203.589844 49.25 L 203.589844 61.582031 L 201.78125 61.582031 Z M 201.78125 49.25 "></path><path style=" stroke:none;fill-rule:nonzero;fill:rgb(100%,100%,100%);fill-opacity:1;" d="M 205.871094 49.25 L 207.679688 49.25 L 207.679688 61.582031 L 205.871094 61.582031 Z M 205.871094 49.25 "></path><path style=" stroke:none;fill-rule:nonzero;fill:rgb(100%,100%,100%);fill-opacity:1;" d="M 209.925781 49.238281 L 211.765625 49.238281 L 211.765625 51.082031 L 209.925781 51.082031 Z M 209.960938 52.617188 L 211.765625 52.617188 L 211.765625 61.582031 L 209.960938 61.582031 Z M 209.960938 52.617188 "></path><path style=" stroke:none;fill-rule:nonzero;fill:rgb(100%,100%,100%);fill-opacity:1;" d="M 220.359375 60.824219 L 220.359375 59.910156 C 220.027344 60.371094 219.621094 60.730469 219.140625 60.996094 C 218.667969 61.25 218.101562 61.386719 217.46875 61.386719 C 216.617188 61.386719 215.914062 61.191406 215.359375 60.789062 C 214.808594 60.394531 214.394531 59.851562 214.117188 59.171875 C 213.851562 58.492188 213.714844 57.730469 213.714844 56.886719 C 213.714844 55.976562 213.875 55.179688 214.1875 54.5 C 214.496094 53.816406 214.957031 53.289062 215.546875 52.90625 C 216.132812 52.527344 216.835938 52.339844 217.640625 52.339844 C 218.136719 52.339844 218.621094 52.433594 219.09375 52.628906 C 219.566406 52.824219 219.992188 53.183594 220.382812 53.714844 L 220.382812 52.605469 L 222.15625 52.605469 L 222.15625 60.1875 C 222.15625 61.203125 222.042969 62.082031 221.8125 62.820312 C 221.582031 63.558594 221.167969 64.121094 220.578125 64.515625 C 219.992188 64.90625 219.140625 65.113281 218.054688 65.113281 C 216.859375 65.113281 215.925781 64.894531 215.246094 64.445312 C 214.566406 64.007812 214.175781 63.292969 214.058594 62.3125 L 215.832031 62.3125 C 215.9375 62.808594 216.15625 63.164062 216.5 63.382812 C 216.835938 63.601562 217.367188 63.707031 218.066406 63.707031 C 218.945312 63.707031 219.542969 63.464844 219.863281 62.96875 C 220.1875 62.484375 220.359375 61.757812 220.359375 60.800781 Z M 219.808594 54.636719 C 219.414062 54.105469 218.816406 53.828125 218 53.828125 C 217.320312 53.828125 216.753906 54.070312 216.292969 54.546875 C 215.832031 55.019531 215.601562 55.804688 215.601562 56.863281 C 215.601562 57.589844 215.707031 58.179688 215.925781 58.617188 C 216.144531 59.058594 216.433594 59.378906 216.789062 59.578125 C 217.148438 59.773438 217.515625 59.863281 217.90625 59.863281 C 218.746094 59.863281 219.371094 59.597656 219.773438 59.058594 C 220.175781 58.527344 220.382812 57.832031 220.382812 57.015625 L 220.382812 56.738281 C 220.382812 55.859375 220.1875 55.15625 219.796875 54.625 Z M 219.808594 54.636719 "></path><path style=" stroke:none;fill-rule:nonzero;fill:rgb(100%,100%,100%);fill-opacity:1;" d="M 224.113281 57.175781 C 224.113281 56.136719 224.300781 55.261719 224.65625 54.546875 C 225.011719 53.828125 225.519531 53.277344 226.164062 52.90625 C 226.808594 52.539062 227.546875 52.339844 228.386719 52.339844 C 229.308594 52.339844 230.058594 52.527344 230.65625 52.90625 C 231.246094 53.277344 231.695312 53.796875 231.980469 54.464844 C 232.269531 55.121094 232.410156 55.894531 232.410156 56.75 L 232.410156 57.546875 L 225.921875 57.546875 C 225.96875 58.46875 226.199219 59.183594 226.601562 59.691406 C 227.007812 60.199219 227.605469 60.464844 228.386719 60.464844 C 229.066406 60.464844 229.574219 60.335938 229.898438 60.074219 C 230.21875 59.820312 230.449219 59.460938 230.566406 59.011719 L 232.269531 59.011719 C 232.121094 59.898438 231.730469 60.589844 231.082031 61.097656 C 230.449219 61.605469 229.539062 61.859375 228.386719 61.859375 C 227.019531 61.859375 225.96875 61.445312 225.222656 60.613281 C 224.484375 59.785156 224.105469 58.640625 224.105469 57.175781 Z M 226.269531 54.972656 C 226.097656 55.363281 225.992188 55.8125 225.945312 56.320312 L 230.632812 56.320312 C 230.589844 55.46875 230.402344 54.820312 230.09375 54.371094 C 229.78125 53.921875 229.207031 53.703125 228.378906 53.703125 C 227.824219 53.703125 227.375 53.816406 227.039062 54.050781 C 226.707031 54.28125 226.441406 54.589844 226.269531 54.984375 Z M 226.269531 54.972656 "></path><path style=" stroke:none;fill-rule:nonzero;fill:rgb(100%,100%,100%);fill-opacity:1;" d="M 234.332031 52.617188 L 236.105469 52.617188 L 236.105469 53.910156 C 236.554688 53.34375 237.039062 52.941406 237.546875 52.699219 C 238.050781 52.457031 238.59375 52.339844 239.136719 52.339844 C 240.136719 52.339844 240.886719 52.617188 241.382812 53.183594 C 241.875 53.738281 242.117188 54.558594 242.117188 55.605469 L 242.117188 61.582031 L 240.320312 61.582031 L 240.320312 55.953125 C 240.320312 55.203125 240.183594 54.671875 239.90625 54.347656 C 239.628906 54.039062 239.214844 53.875 238.652344 53.875 C 238.339844 53.875 238.03125 53.933594 237.730469 54.050781 C 237.429688 54.164062 237.140625 54.335938 236.890625 54.566406 C 236.636719 54.789062 236.441406 55.03125 236.3125 55.296875 C 236.1875 55.5625 236.117188 55.894531 236.117188 56.300781 L 236.117188 61.582031 L 234.320312 61.582031 L 234.320312 52.617188 Z M 234.332031 52.617188 "></path><path style=" stroke:none;fill-rule:nonzero;fill:rgb(100%,100%,100%);fill-opacity:1;" d="M 244.007812 57.140625 C 244.007812 56.171875 244.179688 55.328125 244.527344 54.613281 C 244.871094 53.898438 245.367188 53.332031 246.023438 52.941406 C 246.679688 52.550781 247.453125 52.339844 248.339844 52.339844 C 249.433594 52.339844 250.285156 52.605469 250.894531 53.148438 C 251.507812 53.691406 251.898438 54.429688 252.046875 55.375 L 250.273438 55.664062 C 250.167969 55.121094 249.972656 54.683594 249.699219 54.335938 C 249.421875 53.992188 248.949219 53.816406 248.304688 53.816406 C 247.726562 53.816406 247.265625 53.957031 246.910156 54.246094 C 246.554688 54.535156 246.300781 54.925781 246.136719 55.410156 C 245.976562 55.894531 245.898438 56.460938 245.898438 57.082031 C 245.898438 57.707031 245.976562 58.261719 246.125 58.757812 C 246.277344 59.253906 246.53125 59.644531 246.886719 59.933594 C 247.234375 60.222656 247.703125 60.359375 248.292969 60.359375 C 248.960938 60.359375 249.457031 60.1875 249.777344 59.851562 C 250.101562 59.519531 250.308594 59.046875 250.398438 58.457031 L 252.175781 58.457031 C 252.035156 59.507812 251.644531 60.328125 250.988281 60.9375 C 250.34375 61.539062 249.421875 61.847656 248.257812 61.847656 C 246.875 61.847656 245.828125 61.421875 245.101562 60.578125 C 244.375 59.738281 244.019531 58.582031 244.019531 57.128906 Z M 244.007812 57.140625 "></path><path style=" stroke:none;fill-rule:nonzero;fill:rgb(100%,100%,100%);fill-opacity:1;" d="M 253.695312 57.175781 C 253.695312 56.136719 253.878906 55.261719 254.234375 54.546875 C 254.59375 53.828125 255.101562 53.277344 255.746094 52.90625 C 256.390625 52.539062 257.128906 52.339844 257.96875 52.339844 C 258.890625 52.339844 259.636719 52.527344 260.238281 52.90625 C 260.824219 53.277344 261.273438 53.796875 261.5625 54.464844 C 261.851562 55.121094 261.988281 55.894531 261.988281 56.75 L 261.988281 57.546875 L 255.503906 57.546875 C 255.550781 58.46875 255.78125 59.183594 256.183594 59.691406 C 256.585938 60.199219 257.183594 60.464844 257.96875 60.464844 C 258.648438 60.464844 259.15625 60.335938 259.476562 60.074219 C 259.800781 59.820312 260.03125 59.460938 260.144531 59.011719 L 261.851562 59.011719 C 261.699219 59.898438 261.308594 60.589844 260.664062 61.097656 C 260.03125 61.605469 259.121094 61.859375 257.96875 61.859375 C 256.597656 61.859375 255.550781 61.445312 254.800781 60.613281 C 254.0625 59.785156 253.683594 58.640625 253.683594 57.175781 Z M 255.859375 54.972656 C 255.6875 55.363281 255.582031 55.8125 255.539062 56.320312 L 260.226562 56.320312 C 260.179688 55.46875 259.996094 54.820312 259.683594 54.371094 C 259.375 53.921875 258.796875 53.703125 257.96875 53.703125 C 257.414062 53.703125 256.964844 53.816406 256.632812 54.050781 C 256.296875 54.28125 256.03125 54.589844 255.859375 54.984375 Z M 255.859375 54.972656 "></path></g></svg> 