<svg id="Lager_1" data-name="Lager 1" xmlns="http://www.w3.org/2000/svg" viewBox="0 0 585.93 198.63">
  <defs>
    <style>
      .cls-1{fill:#006db0}.cls-2{fill:#004985}.cls-3{fill:#1bbbe9}.cls-4{fill:#97c1e3}
    </style>
  </defs>
  <path class="cls-1" d="M50.42 140.44L3.61 113.08l46.81-27.36v54.72z"/>
  <path class="cls-2" d="M97.81 58.36l46.81 27.36-46.81 27.36V58.36z"/>
  <path class="cls-3" d="M144.62 140.44l-46.81-27.36 46.81-27.36v54.72z"/>
  <path class="cls-1" d="M97.81 113.08L50.42 85.72l47.39-27.36v54.72z"/>
  <path class="cls-4" d="M50.42 31l47.39 27.36-47.39 27.36V31zM97.81 167.81l-47.39-27.36 47.39-27.37v54.73z"/>
  <path class="cls-2" d="M50.42 85.72l47.39 27.36-47.39 27.36V85.72z"/>
  <path class="cls-3" d="M3.61 58.36l46.81 27.36-46.81 27.36V58.36zM3.61 113.08v54.35l46.81 27.46v-54.45L3.61 113.08zM97.81 3.74v54.72l46.81 27.36V31.1L97.81 3.74z"/>
  <path class="cls-2" d="M232.43 82a1.16 1.16 0 0 1 1.12-1.12h3.88a1.12 1.12 0 0 1 1.12 1.12v16.42h21.55V82a1.12 1.12 0 0 1 1.12-1.12h3.88a1.16 1.16 0 0 1 1.12 1.12v39a1.16 1.16 0 0 1-1.12 1.12h-3.88a1.12 1.12 0 0 1-1.12-1.12v-17h-21.55v17a1.12 1.12 0 0 1-1.12 1.12h-3.88a1.16 1.16 0 0 1-1.12-1.12zM270.76 120.55l18.07-39.62a1.4 1.4 0 0 1 1-.65h.59a1.4 1.4 0 0 1 1 .65l18 39.62a1 1 0 0 1-1 1.53h-3.71a1.38 1.38 0 0 1-1.36-.88l-3.65-8.07h-19.29c-1.18 2.71-2.41 5.36-3.59 8.07a1.49 1.49 0 0 1-1.35.88h-3.71a1 1 0 0 1-1-1.53zm26.67-12.48l-7.25-16.13h-.29l-7.18 16.13zM314.56 82a1.12 1.12 0 0 1 1.12-1.12h3.88a1.16 1.16 0 0 1 1.12 1.12v34.62h16a1.12 1.12 0 0 1 1.11 1.12V121a1.12 1.12 0 0 1-1.11 1.12h-21a1.12 1.12 0 0 1-1.12-1.12zM347.82 81.17a1.19 1.19 0 0 1 1.06-.89h.94a1.21 1.21 0 0 1 1 .65L363.13 111h.24l12.24-30.08a1.13 1.13 0 0 1 1-.65h.94a1.17 1.17 0 0 1 1.06.89l7.25 39.56a1 1 0 0 1-1.07 1.35H381a1.23 1.23 0 0 1-1.12-.82l-4.36-26.32h-.18L364.72 122a1 1 0 0 1-1 .65h-1.06a1.05 1.05 0 0 1-1-.65L351 94.94h-.23l-4.24 26.32a1.15 1.15 0 0 1-1.06.82h-3.83a1.06 1.06 0 0 1-1.12-1.35zM390.74 116.14c.53-.77 1-1.65 1.53-2.42a1.34 1.34 0 0 1 2-.47c.35.3 4.88 4.06 9.42 4.06 4.06 0 6.65-2.47 6.65-5.47 0-3.53-3.06-5.77-8.89-8.18-6-2.54-10.72-5.66-10.72-12.49 0-4.59 3.54-10.89 12.89-10.89a19.9 19.9 0 0 1 10.9 3.48 1.4 1.4 0 0 1 .35 2c-.47.7-1 1.53-1.47 2.24a1.39 1.39 0 0 1-2.06.58c-.41-.23-4.54-2.94-8-2.94-4.95 0-6.65 3.12-6.65 5.3 0 3.35 2.59 5.41 7.47 7.42 6.83 2.76 12.66 6 12.66 13.18 0 6.13-5.47 11.13-13.13 11.13A19.06 19.06 0 0 1 391.1 118c-.53-.45-.95-.86-.36-1.86zM430.07 86.41h-9.6a1.12 1.12 0 0 1-1.11-1.12V82a1.12 1.12 0 0 1 1.11-1.12h25.32a1.12 1.12 0 0 1 1.12 1.12v3.3a1.12 1.12 0 0 1-1.12 1.12h-9.6V121a1.16 1.16 0 0 1-1.12 1.12h-3.88a1.16 1.16 0 0 1-1.12-1.12zM443.49 120.55l18.08-39.62a1.37 1.37 0 0 1 1-.65h.59a1.4 1.4 0 0 1 1 .65l18 39.62a1 1 0 0 1-1 1.53h-3.76a1.37 1.37 0 0 1-1.35-.88l-3.65-8.07h-19.25c-1.18 2.71-2.41 5.36-3.59 8.07a1.49 1.49 0 0 1-1.36.88h-3.71a1 1 0 0 1-1-1.53zm26.67-12.48l-7.24-16.13h-.29l-7.18 16.13zM487.12 82a1.11 1.11 0 0 1 1.06-1.12h13.54a20.61 20.61 0 1 1 0 41.21h-13.54a1.11 1.11 0 0 1-1.06-1.12zm13.77 34.5c8.66 0 15-6.36 15-15.07a14.48 14.48 0 0 0-15-15h-7.77v30zM174.06 140.59a1.51 1.51 0 0 1 1.46-1.46h5.16a1.45 1.45 0 0 1 1.46 1.46v31.8c0 7.7 4.93 13.7 12.78 13.7s12.94-5.93 12.94-13.55v-31.95a1.45 1.45 0 0 1 1.46-1.46h5.16a1.51 1.51 0 0 1 1.46 1.46v32.34c0 11.7-8.85 20.86-21 20.86a20.4 20.4 0 0 1-20.86-20.86zM225.65 139.74a1.45 1.45 0 0 1 1.46-1.39H229L262.45 177h.08v-36.41a1.45 1.45 0 0 1 1.46-1.46h4.93a1.51 1.51 0 0 1 1.46 1.46v51.82a1.44 1.44 0 0 1-1.46 1.38h-2l-33.42-39.73h-.08v37.5A1.45 1.45 0 0 1 232 193h-4.85a1.51 1.51 0 0 1-1.46-1.46zM283.55 140.59a1.51 1.51 0 0 1 1.46-1.46h5.09a1.51 1.51 0 0 1 1.46 1.46v51a1.51 1.51 0 0 1-1.46 1.41H285a1.51 1.51 0 0 1-1.46-1.46zM297.18 141.13a1.36 1.36 0 0 1 1.31-2H304a1.53 1.53 0 0 1 1.31.84l16.93 38.12h.47l16.9-38.09a1.4 1.4 0 0 1 1.3-.84h5.47a1.36 1.36 0 0 1 1.31 2l-23.64 51.81a1.45 1.45 0 0 1-1.31.85H322a1.56 1.56 0 0 1-1.31-.85zM352.77 140.59a1.46 1.46 0 0 1 1.47-1.46H385a1.46 1.46 0 0 1 1.46 1.46v4.31a1.46 1.46 0 0 1-1.46 1.46h-24.3v15.71h20.56a1.51 1.51 0 0 1 1.46 1.46v4.32a1.46 1.46 0 0 1-1.46 1.46H360.7v16.55H385a1.46 1.46 0 0 1 1.46 1.46v4.24A1.46 1.46 0 0 1 385 193h-30.8a1.46 1.46 0 0 1-1.47-1.46zM396.28 140.59a1.45 1.45 0 0 1 1.46-1.46h20.94a16.61 16.61 0 0 1 16.79 16.47c0 7.09-4.7 12.94-11.4 15.63l10.55 19.56a1.45 1.45 0 0 1-1.31 2.23h-6a1.4 1.4 0 0 1-1.23-.69l-10.24-20.4h-11.63v19.63a1.51 1.51 0 0 1-1.46 1.46h-5a1.45 1.45 0 0 1-1.46-1.46zm21.79 24.71a9.56 9.56 0 0 0 9.39-9.54 9.44 9.44 0 0 0-9.39-9.17h-13.71v18.71zM440.32 185.25c.7-1 1.31-2.16 2-3.16a1.75 1.75 0 0 1 2.62-.62c.46.39 6.39 5.32 12.32 5.32 5.31 0 8.7-3.24 8.7-7.17 0-4.61-4-7.54-11.62-10.7-7.86-3.31-14-7.39-14-16.32 0-6 4.62-14.25 16.86-14.25a26.08 26.08 0 0 1 14.25 4.55 1.83 1.83 0 0 1 .46 2.62c-.62.92-1.31 2-1.93 2.92a1.82 1.82 0 0 1-2.69.77c-.54-.31-5.93-3.85-10.39-3.85-6.47 0-8.7 4.08-8.7 6.93 0 4.39 3.38 7.09 9.77 9.7 8.93 3.62 16.56 7.86 16.56 17.25 0 8-7.16 14.55-17.17 14.55a25 25 0 0 1-16.56-6.08c-.71-.62-1.25-1.16-.48-2.46zM483.67 140.59a1.52 1.52 0 0 1 1.46-1.46h5.09a1.51 1.51 0 0 1 1.46 1.46v51a1.51 1.51 0 0 1-1.46 1.46h-5.09a1.52 1.52 0 0 1-1.46-1.46zM513.24 146.36h-12.55a1.45 1.45 0 0 1-1.46-1.46v-4.31a1.45 1.45 0 0 1 1.46-1.46h33.11a1.46 1.46 0 0 1 1.46 1.46v4.31a1.46 1.46 0 0 1-1.46 1.46h-12.55v45.2a1.52 1.52 0 0 1-1.47 1.46h-5.08a1.51 1.51 0 0 1-1.46-1.46zM555.82 167.07l-18-25.71a1.43 1.43 0 0 1 1.23-2.23h5.7a1.51 1.51 0 0 1 1.23.69l13.94 19.63 13.94-19.63a1.64 1.64 0 0 1 1.23-.69h5.77a1.42 1.42 0 0 1 1.23 2.23L563.83 167v24.56a1.52 1.52 0 0 1-1.47 1.46h-5.08a1.46 1.46 0 0 1-1.46-1.46z"/>
</svg>
